<svg width="512" height="448" viewBox="0 0 512 448" fill="none" xmlns="http://www.w3.org/2000/svg">
<path d="M234.403 60.8538C248.703 103.754 234.103 147.054 201.803 157.654C169.503 168.254 131.703 142.054 117.403 99.1538C103.103 56.2538 117.703 12.9538 150.003 2.35384C182.303 -8.24616 220.103 17.9538 234.403 60.8538ZM100.303 166.554C119.203 198.954 114.603 236.654 90.1034 250.654C65.6034 264.654 30.4034 249.754 11.6034 217.354C-7.19664 184.954 -2.69663 147.254 21.8034 133.254C46.3034 119.254 81.5034 134.154 100.303 166.554ZM69.1034 369.154C121.503 227.854 214.603 191.954 255.903 191.954C297.203 191.954 390.303 227.854 442.703 369.154C446.303 378.854 447.903 389.254 447.903 399.654V401.254C447.903 427.054 427.003 447.954 401.203 447.954C389.703 447.954 378.303 446.554 367.203 443.754L279.203 421.754C263.903 417.954 247.903 417.954 232.603 421.754L144.603 443.754C133.503 446.554 122.103 447.954 110.603 447.954C84.8034 447.954 63.9034 427.054 63.9034 401.254V399.654C63.9034 389.254 65.5034 378.854 69.1034 369.154ZM421.703 250.654C397.203 236.654 392.603 198.954 411.503 166.554C430.403 134.154 465.503 119.254 490.003 133.254C514.503 147.254 519.103 184.954 500.203 217.354C481.303 249.754 446.203 264.654 421.703 250.654ZM310.003 157.654C277.703 147.054 263.103 103.754 277.403 60.8538C291.703 17.9538 329.503 -8.24616 361.803 2.35384C394.103 12.9538 408.703 56.2538 394.403 99.1538C380.103 142.054 342.303 168.254 310.003 157.654Z" fill="#2A784E"/>
</svg>
