<svg width="4510" height="915" viewBox="0 0 4510 915" fill="none" xmlns="http://www.w3.org/2000/svg">
<path d="M60.7304 562V18.5682H483.949V128.078H202.352V238.411H426.312V341.334H202.352V452.49H494.652V562H60.7304ZM743.198 570.234C702.029 570.234 663.604 563.647 627.925 550.473C592.794 536.75 563.701 517.263 540.646 492.013L606.517 414.615C620.24 432.18 638.354 447.001 660.86 459.077C683.914 470.605 709.439 476.368 737.434 476.368C754.451 476.368 768.448 473.898 779.427 468.958C790.405 464.018 795.894 456.333 795.894 445.903C795.894 438.218 793.15 432.18 787.661 427.789C782.171 422.849 771.193 418.732 754.725 415.438L697.089 403.911C645.49 393.481 608.712 378.111 586.755 357.801C565.348 336.942 554.644 309.771 554.644 276.287C554.644 253.781 561.505 232.373 575.228 212.063C588.951 191.204 610.085 174.462 638.628 161.837C667.172 148.662 703.676 142.075 748.138 142.075C789.856 142.075 826.634 148.114 858.471 160.19C890.309 172.266 915.559 189.832 934.222 212.886L867.529 288.637C854.354 272.17 837.338 259.27 816.479 249.938C795.62 240.607 774.761 235.941 753.902 235.941C740.728 235.941 729.475 237.313 720.143 240.058C711.361 242.253 704.773 245.547 700.382 249.938C695.991 254.33 693.795 259.819 693.795 266.406C693.795 273.542 697.089 279.855 703.676 285.344C710.812 290.284 723.711 294.675 742.375 298.518L817.302 313.339C859.569 321.024 890.034 335.021 908.698 355.331C927.361 375.641 936.693 400.068 936.693 428.612C936.693 455.509 929.557 479.662 915.285 501.07C901.013 522.478 879.605 539.494 851.061 552.119C822.517 564.196 786.563 570.234 743.198 570.234ZM1009.32 734.91V150.309H1135.29L1142.71 299.341L1126.24 282.05C1130.08 254.604 1138.59 230.452 1151.76 209.593C1164.94 188.734 1181.95 172.266 1202.81 160.19C1223.67 148.114 1247.55 142.075 1274.45 142.075C1308.48 142.075 1338.12 150.584 1363.37 167.6C1388.62 184.068 1408.11 208.22 1421.83 240.058C1436.1 271.346 1443.24 309.496 1443.24 354.508C1443.24 399.519 1436.1 438.218 1421.83 470.605C1407.56 502.991 1387.52 527.692 1361.72 544.709C1336.47 561.726 1306.83 570.234 1272.8 570.234C1235.47 570.234 1205.28 559.255 1182.23 537.299C1159.17 514.793 1143.8 486.523 1136.12 452.49L1149.29 432.729V734.91H1009.32ZM1225.04 467.311C1249.2 467.311 1268.13 458.528 1281.86 440.963C1295.58 422.849 1302.44 394.579 1302.44 356.155C1302.44 317.73 1295.58 289.735 1281.86 272.17C1268.68 254.055 1250.02 244.998 1225.87 244.998C1210.5 244.998 1197.05 249.389 1185.52 258.172C1173.99 266.406 1164.94 278.757 1158.35 295.224C1152.31 311.692 1149.29 332.002 1149.29 356.155C1149.29 379.209 1152.04 399.245 1157.53 416.261C1163.56 432.729 1172.35 445.354 1183.87 454.137C1195.4 462.92 1209.12 467.311 1225.04 467.311ZM1751.24 300.988C1751.24 281.776 1745.75 266.68 1734.77 255.702C1724.34 244.175 1710.07 238.411 1691.96 238.411C1673.84 238.411 1658.2 243.077 1645.03 252.409C1632.4 261.191 1623.62 277.11 1618.68 300.165L1500.11 272.17C1507.8 232.647 1528.11 201.084 1561.04 177.481C1593.98 153.877 1640.36 142.075 1700.19 142.075C1740.26 142.075 1774.3 148.114 1802.29 160.19C1830.84 171.717 1852.52 189.283 1867.34 212.886C1882.71 235.941 1890.39 264.485 1890.39 298.518V449.197C1890.39 470.605 1900 481.309 1919.21 481.309C1929.09 481.309 1937.05 480.211 1943.09 478.015L1934.86 557.883C1918.39 565.568 1898.35 569.41 1874.75 569.41C1853.34 569.41 1834.4 566.117 1817.94 559.53C1801.47 552.394 1788.57 541.964 1779.24 528.241C1769.91 513.969 1765.24 496.129 1765.24 474.722V469.781L1780.88 464.018C1780.88 487.621 1773.75 507.382 1759.48 523.301C1745.75 539.22 1727.64 551.022 1705.13 558.706C1683.18 566.391 1660.12 570.234 1635.97 570.234C1607.97 570.234 1583.55 565.842 1562.69 557.06C1541.83 548.277 1525.64 535.652 1514.11 519.184C1503.13 502.168 1497.64 481.309 1497.64 456.607C1497.64 426.965 1506.42 402.538 1523.99 383.326C1542.1 363.565 1570.37 349.842 1608.8 342.157L1764.42 310.045L1763.59 384.15L1684.55 400.617C1668.08 403.911 1655.73 408.851 1647.5 415.438C1639.81 421.476 1635.97 430.808 1635.97 443.433C1635.97 455.509 1640.36 464.567 1649.14 470.605C1657.93 476.643 1668.36 479.662 1680.43 479.662C1689.76 479.662 1698.55 478.29 1706.78 475.545C1715.56 472.8 1723.25 468.683 1729.83 463.194C1736.42 457.156 1741.64 449.746 1745.48 440.963C1749.32 432.18 1751.24 421.751 1751.24 409.674V300.988ZM2190.27 142.075C2231.98 142.075 2266.57 148.114 2294.01 160.19C2322.01 171.717 2343.69 187.361 2359.06 207.123C2374.98 226.335 2384.86 247.194 2388.7 269.7L2259.43 312.515C2255.59 288.912 2248.45 271.346 2238.02 259.819C2228.14 247.743 2213.59 241.705 2194.38 241.705C2176.82 241.705 2162 245.821 2149.92 254.055C2138.39 261.74 2129.61 274.365 2123.57 291.931C2117.53 308.947 2114.51 330.904 2114.51 357.801C2114.51 384.698 2117.81 406.655 2124.39 423.672C2130.98 440.14 2140.31 452.216 2152.39 459.901C2164.47 467.037 2178.74 470.605 2195.21 470.605C2208.93 470.605 2220.18 468.134 2228.96 463.194C2238.3 457.705 2245.98 450.02 2252.02 440.14C2258.06 430.259 2261.9 418.183 2263.55 403.911L2389.52 444.256C2385.68 468.409 2375.25 490.091 2358.24 509.304C2341.77 527.967 2319.81 542.788 2292.36 553.766C2264.92 564.745 2232.81 570.234 2196.03 570.234C2151.02 570.234 2111.77 562 2078.29 545.532C2044.8 528.516 2019 504.089 2000.89 472.251C1982.77 439.865 1973.72 401.166 1973.72 356.155C1973.72 311.143 1982.77 272.719 2000.89 240.881C2019 208.495 2044.25 184.068 2076.64 167.6C2109.57 150.584 2147.45 142.075 2190.27 142.075ZM2127.69 553.766L2161.45 531.535C2204.26 537.573 2235.83 549.1 2256.14 566.117C2276.45 583.682 2286.6 607.012 2286.6 636.104C2286.6 666.844 2276.17 691.545 2255.31 710.209C2235 729.421 2207.01 739.027 2171.33 739.027C2149.92 739.027 2132.9 736.557 2120.28 731.617C2107.65 727.225 2096.4 721.736 2086.52 715.149L2109.57 648.455C2116.16 652.298 2123.3 655.591 2130.98 658.336C2138.67 661.629 2148 663.276 2158.98 663.276C2173.25 663.276 2184.78 659.159 2193.56 650.925C2202.34 642.691 2206.73 631.164 2206.73 616.343C2206.73 603.718 2200.97 592.465 2189.44 582.585C2177.91 572.704 2157.33 563.098 2127.69 553.766ZM2658.26 142.075C2701.63 142.075 2739.5 150.584 2771.89 167.6C2804.82 184.068 2830.35 208.495 2848.46 240.881C2867.13 272.719 2876.46 311.143 2876.46 356.155C2876.46 401.166 2867.13 439.865 2848.46 472.251C2830.35 504.089 2804.82 528.516 2771.89 545.532C2739.5 562 2701.63 570.234 2658.26 570.234C2615.99 570.234 2578.39 562 2545.46 545.532C2512.52 528.516 2486.72 504.089 2468.06 472.251C2449.95 439.865 2440.89 401.166 2440.89 356.155C2440.89 311.143 2449.95 272.719 2468.06 240.881C2486.72 208.495 2512.52 184.068 2545.46 167.6C2578.39 150.584 2615.99 142.075 2658.26 142.075ZM2658.26 241.705C2642.34 241.705 2628.62 245.547 2617.09 253.232C2605.56 260.917 2596.78 273.268 2590.74 290.284C2584.71 307.301 2581.69 329.257 2581.69 356.155C2581.69 383.052 2584.71 405.009 2590.74 422.025C2596.78 438.493 2605.56 450.843 2617.09 459.077C2628.62 466.762 2642.34 470.605 2658.26 470.605C2674.73 470.605 2688.73 466.762 2700.25 459.077C2711.78 450.843 2720.56 438.493 2726.6 422.025C2732.64 405.009 2735.66 383.052 2735.66 356.155C2735.66 329.257 2732.64 307.301 2726.6 290.284C2720.56 273.268 2711.78 260.917 2700.25 253.232C2688.73 245.547 2674.73 241.705 2658.26 241.705ZM3450.16 18.5682C3494.62 18.5682 3532.5 25.7041 3563.79 39.9761C3595.08 54.248 3618.95 74.8326 3635.42 101.73C3651.89 128.627 3660.12 161.288 3660.12 199.712C3660.12 238.137 3651.89 270.797 3635.42 297.695C3618.95 324.592 3595.08 345.176 3563.79 359.448C3532.5 373.72 3494.62 380.856 3450.16 380.856H3342.3V562H3200.68V18.5682H3450.16ZM3427.93 274.64C3457.57 274.64 3479.8 268.602 3494.62 256.525C3509.99 243.9 3517.68 224.962 3517.68 199.712C3517.68 174.462 3509.99 155.798 3494.62 143.722C3479.8 131.097 3457.57 124.784 3427.93 124.784H3342.3V274.64H3427.93ZM3928.83 570.234C3883.27 570.234 3843.75 561.726 3810.26 544.709C3777.33 527.692 3751.8 503.265 3733.69 471.428C3715.57 439.591 3706.52 401.166 3706.52 356.155C3706.52 311.143 3715.57 272.719 3733.69 240.881C3751.8 209.044 3777.05 184.617 3809.44 167.6C3842.37 150.584 3879.97 142.075 3922.24 142.075C3965.61 142.075 4002.38 150.584 4032.57 167.6C4063.31 184.068 4086.64 207.123 4102.56 236.764C4118.48 265.857 4126.44 299.341 4126.44 337.217C4126.44 347.097 4126.17 356.978 4125.62 366.859C4125.07 376.739 4124.24 384.973 4123.15 391.56H3797.09V316.632H4061.39L3994.7 342.157C3994.7 309.222 3988.66 283.971 3976.59 266.406C3965.06 248.841 3946.94 240.058 3922.24 240.058C3904.68 240.058 3889.58 244.175 3876.96 252.409C3864.88 260.642 3855.55 273.542 3848.96 291.107C3842.92 308.673 3839.9 331.179 3839.9 358.625C3839.9 385.522 3843.47 407.479 3850.61 424.495C3857.74 440.963 3867.9 453.039 3881.07 460.724C3894.25 467.86 3910.17 471.428 3928.83 471.428C3949.69 471.428 3966.16 467.311 3978.23 459.077C3990.86 450.843 4000.19 439.316 4006.23 424.495L4118.21 461.547C4110.52 485.151 4097.07 505.187 4077.86 521.654C4059.2 537.573 4036.69 549.649 4010.34 557.883C3984.54 566.117 3957.37 570.234 3928.83 570.234ZM4372.01 19.3915V415.438C4372.01 435.199 4376.67 449.471 4386.01 458.254C4395.89 466.488 4409.33 470.605 4426.35 470.605C4439.53 470.605 4450.78 469.232 4460.11 466.488C4469.99 463.194 4478.77 458.528 4486.46 452.49L4501.28 538.945C4487.56 548.826 4470.26 556.511 4449.41 562C4428.55 567.489 4407.14 570.234 4385.18 570.234C4353.89 570.234 4326.72 565.842 4303.67 557.06C4281.16 548.277 4263.6 534.279 4250.97 515.067C4238.89 495.855 4232.58 470.33 4232.03 438.493V58.0905L4372.01 19.3915ZM4494.69 150.309V249.938H4161.22V150.309H4494.69Z" fill="#2A784E"/>
<path d="M3952.64 738.219C3970.57 723.126 3994.77 710.09 4023.77 710.09C4052.76 710.09 4076.96 723.126 4094.89 738.219C4112.77 753.313 4125.49 771.334 4131.94 783.867C4134.09 788.075 4134.09 793.06 4131.94 797.268C4125.49 809.801 4112.77 827.822 4094.89 842.916C4076.96 858.055 4052.81 871.045 4023.77 871.045C3994.72 871.045 3970.57 858.009 3952.64 842.916C3945.23 836.649 3938.69 829.88 3933.11 823.202L3892.08 847.124C3886.37 850.462 3879.09 849.548 3874.38 844.882C3869.67 840.217 3868.71 832.99 3871.96 827.227L3892.95 790.59L3872 753.954C3868.71 748.191 3869.72 740.964 3874.43 736.298C3879.14 731.633 3886.37 730.718 3892.13 734.057L3933.16 757.979C3938.74 751.301 3945.28 744.531 3952.69 738.265L3952.64 738.219ZM4074.99 790.59C4074.99 782.495 4068.45 775.954 4060.36 775.954C4052.26 775.954 4045.72 782.495 4045.72 790.59C4045.72 798.686 4052.26 805.227 4060.36 805.227C4068.45 805.227 4074.99 798.686 4074.99 790.59Z" fill="#2A784E"/>
<path d="M4426.69 673.499C4404.46 673.499 4386.44 691.52 4386.44 713.749V730.215L4223.97 852.063C4217.52 856.912 4216.2 866.06 4221.05 872.554C4225.89 879.049 4235.04 880.33 4241.54 875.482L4276.66 849.136H4336.72L4358.03 900.867L4358.49 901.873C4361.1 906.767 4367.09 908.962 4372.35 906.813C4377.61 904.663 4380.26 898.9 4378.71 893.549L4378.34 892.497L4360.46 849.09H4379.17C4379.67 849.09 4380.17 849.09 4380.63 849.09L4401.94 900.867L4402.4 901.873C4405.01 906.767 4411 908.962 4416.26 906.813C4421.52 904.663 4424.17 898.9 4422.62 893.549L4422.25 892.497L4403.04 845.843C4439.86 835.46 4466.94 801.568 4466.94 761.318V728.386L4503.76 719.192C4507.69 718.232 4510.07 714.252 4509.06 710.319C4505.82 697.283 4494.11 688.136 4480.66 688.136H4457.74C4450.33 679.216 4439.17 673.499 4426.69 673.499ZM4426.69 702.772C4432.77 702.772 4437.67 707.666 4437.67 713.749C4437.67 719.833 4432.77 724.727 4426.69 724.727C4420.6 724.727 4415.71 719.833 4415.71 713.749C4415.71 707.666 4420.6 702.772 4426.69 702.772Z" fill="#2A784E"/>
<path d="M3210.5 732.045C3218.09 732.045 3224.31 737.808 3225.04 745.172L3225.18 748.191C3225.96 755.555 3232.18 761.318 3239.77 761.318H3321.69L3386.14 788.944V900.364C3386.14 908.459 3379.59 915 3371.5 915H3356.86C3348.77 915 3342.23 908.459 3342.23 900.364V840.309C3331.25 845.934 3318.81 849.136 3305.64 849.136C3292.46 849.136 3280.02 845.934 3269.04 840.309V900.364C3269.04 908.459 3262.5 915 3254.41 915H3239.77C3231.68 915 3225.13 908.459 3225.13 900.364V788.029C3208.07 781.992 3195.86 765.8 3195.86 746.681C3195.86 738.585 3202.4 732.045 3210.5 732.045ZM3358.6 666.181C3362.12 666.181 3365.42 667.828 3367.57 670.663L3375.16 680.817H3398.99C3404.8 680.817 3410.38 683.15 3414.49 687.266L3422.73 695.454H3448.34C3454.42 695.454 3459.32 700.348 3459.32 706.431V717.408C3459.32 737.625 3442.94 753.999 3422.73 753.999H3393.45L3390.25 766.806L3333.22 742.382L3347.67 675.054C3348.77 669.886 3353.3 666.181 3358.6 666.181ZM3400.77 700.942C3395.74 700.942 3391.62 705.059 3391.62 710.09C3391.62 715.121 3395.74 719.238 3400.77 719.238C3405.8 719.238 3409.92 715.121 3409.92 710.09C3409.92 705.059 3405.8 700.942 3400.77 700.942Z" fill="#2A784E"/>
<path d="M3558.57 717.66C3582.81 717.66 3602.48 737.328 3602.48 761.569V800.813C3616.06 780.368 3638.06 765.96 3663.5 762.393C3675.2 789.836 3702.47 809.092 3734.21 809.092C3739.19 809.092 3744.09 808.589 3748.84 807.674V893.297C3748.84 901.393 3742.3 907.934 3734.21 907.934C3726.11 907.934 3719.57 901.393 3719.57 893.297V828.897L3657.37 878.661H3682.98C3691.08 878.661 3697.62 885.201 3697.62 893.297C3697.62 901.393 3691.08 907.934 3682.98 907.934H3617.12C3592.87 907.934 3573.21 888.266 3573.21 864.024V761.569C3573.21 753.977 3567.44 747.756 3560.08 747.025L3557.06 746.887C3549.7 746.11 3543.93 739.889 3543.93 732.297C3543.93 724.201 3550.47 717.66 3558.57 717.66ZM3773.45 675.215C3778.21 671.235 3785.44 674.62 3785.44 680.84V732.297C3785.44 760.609 3762.52 783.524 3734.21 783.524C3705.9 783.524 3682.98 760.609 3682.98 732.297V680.84C3682.98 674.62 3690.21 671.235 3694.96 675.215L3719.57 695.706H3748.84L3773.45 675.215ZM3712.25 723.149C3707.22 723.149 3703.11 727.265 3703.11 732.297C3703.11 737.328 3707.22 741.444 3712.25 741.444C3717.28 741.444 3721.4 737.328 3721.4 732.297C3721.4 727.265 3717.28 723.149 3712.25 723.149ZM3756.16 723.149C3751.13 723.149 3747.01 727.265 3747.01 732.297C3747.01 737.328 3751.13 741.444 3756.16 741.444C3761.19 741.444 3765.31 737.328 3765.31 732.297C3765.31 727.265 3761.19 723.149 3756.16 723.149Z" fill="#2A784E"/>
</svg>
